# xmcd
#
# Track frame offsets:
#	150
#	13504
#	27608
#	46374
#	61105
#	78847
#	94893
#	108457
#	123424
#	138280
#	150063
#
# Disc length: 2226 seconds
#
# Revision: 0
# Processed by: cddbd v1.5.2PL0 Copyright (c) Steve Scherf et al.
# Submitted via: EZCDAudioConverter 5.3.0.1
#
DISCID=7e08b00b
DTITLE=Westlights - Den Väg Du Ska Gå
DYEAR=2017
DGENRE=
TTITLE0=Do Me With Love
TTITLE1=Den Väg Du SKa Gå
TTITLE2=Möt Mig I Stockholm
TTITLE3=Guys Like Me
TTITLE4=In Mot Land
TTITLE5=Lång Väg Till Dig
TTITLE6=Crazy Arms
TTITLE7=Easier To Lie
TTITLE8=Call Your Mother
TTITLE9=Ett Hundra Mil Från Dig
TTITLE10=If I Can Find A Clean Shirt
EXTD=
EXTT0=
EXTT1=
EXTT2=
EXTT3=
EXTT4=
EXTT5=
EXTT6=
EXTT7=
EXTT8=
EXTT9=
EXTT10=
PLAYORDER=
